<svg width="1370" height="1792" viewBox="0 0 1370 1792" fill="none" xmlns="http://www.w3.org/2000/svg">
<path d="M84.737 87.513C32.784 239.203 0 415.227 0 593.588C0 1176.85 303.998 1655.77 703.621 1788.6C706.413 1787.37 719.211 1792.86 721.989 1791.6C1098.56 1620.8 1352.37 1150.98 1352.37 617.085C1352.37 452.633 1320.66 312.513 1275.92 167.862L718.462 54.781L697.442 0L84.737 87.513Z" fill="url(#paint0_linear_437_41)"/>
<path d="M100.084 98.94C48.187 250.569 19.293 419.222 19.293 597.466C19.293 1180.34 322.889 1658.91 721.989 1791.6C1102.8 1623.97 1369.91 1158.2 1369.91 620.766C1369.91 456.418 1345.26 298.998 1300.6 154.454L697.442 0L100.084 98.94Z" fill="url(#paint1_linear_437_41)"/>
<path d="M1099.78 712.787C1099.78 924.937 935.409 1098.97 725.888 1101.6C508.507 1104.32 326.207 922.753 326.207 695.97C326.207 469.187 508.507 295.551 725.888 307.722C935.41 319.453 1099.78 500.638 1099.78 712.787Z" fill="#F4F7FA"/>
<path d="M725.825 1111.23C618.712 1112.62 516.54 1070.69 438.634 992.605C359.906 913.692 316.234 808.102 316.234 695.854C316.234 582.657 360.54 478.341 440.403 402.68C518.154 329.019 619.758 292.058 726.08 298.097C830.468 304.003 927.201 350.839 998.983 429.5C1070 507.327 1108.86 607.786 1108.86 712.891C1108.86 818.032 1069.98 916.842 998.92 991.623C927.094 1067.21 830.316 1109.86 725.889 1111.23C725.867 1111.23 725.843 1111.23 725.825 1111.23ZM717.938 316.998C619.673 313.574 526.125 348.768 454.156 417.068C378.256 489.095 336.166 588.365 336.166 696.087C336.166 802.979 377.705 903.55 452.612 978.755C526.701 1053.14 623.904 1093.16 725.825 1091.96C725.849 1091.96 725.86 1091.96 725.884 1091.96C929.04 1089.54 1090.69 919.416 1090.69 712.684C1090.69 505.846 928.957 328.61 725.693 317.346C723.11 317.205 720.514 317.088 717.938 316.998Z" fill="white"/>
<path opacity="0.3" d="M721.987 1737.83L720.065 1737.18C538.893 1676.36 372.533 1535.08 253.426 1338.26C128.748 1132.24 62.1094 882.407 62.1094 618.073C62.1094 455.301 87.5344 298.247 137.461 151.91L138.495 148.876L699.032 54.2031L700.138 54.4841L1267.19 197.856L1268.11 200.827C1311.44 340.666 1333.33 487.747 1333.33 638.542C1333.33 883.432 1275.7 1116.52 1165.54 1314.68C1057.34 1509.3 901.133 1659.55 723.909 1736.99L721.987 1737.83ZM147.413 158.955C98.6154 303.217 73.7714 457.93 73.7714 618.261C73.7714 1141.23 346.26 1598.44 721.988 1726.12C1081.46 1568.07 1323.3 1123.51 1323.3 638.381C1323.3 489.671 1301.87 344.642 1259.43 206.693L699.123 65.4001L147.413 158.955Z" fill="url(#paint2_linear_437_41)"/>
<path opacity="0.3" d="M1369.9 620.766C1369.9 456.417 1345.26 298.998 1300.6 154.453L716.904 4.98389C776.2 118.913 828.784 233.717 840.364 366.477C854.005 522.862 777.577 620.304 704.452 811.176C676.4 884.399 587.93 1121.41 602.395 1381.67C612.472 1562.99 669.77 1703.37 712.768 1788.4C715.842 1789.47 718.903 1790.58 721.987 1791.6C1102.8 1623.97 1369.9 1158.2 1369.9 620.766Z" fill="url(#paint3_linear_437_41)"/>
<path d="M990.324 670.598C985.717 579.807 926.976 503.528 853.82 493.871C795.637 486.191 743.864 520.736 716.306 576.626C688.682 517.987 636.432 478.005 577.148 479.702C501.752 481.86 440.508 553.764 435.68 646.289C432.489 707.428 453.613 763.62 488.293 801.502L701.118 983.576C710.311 991.44 722.3 991.794 731.477 984.482L939.94 818.359C973.2 783.82 993.366 730.551 990.324 670.598Z" fill="url(#paint4_linear_437_41)"/>
<defs>
<linearGradient id="paint0_linear_437_41" x1="1309.32" y1="1080.02" x2="219.744" y2="732.947" gradientUnits="userSpaceOnUse">
<stop stop-color="#311944"/>
<stop offset="1" stop-color="#A03976"/>
</linearGradient>
<linearGradient id="paint1_linear_437_41" x1="910.956" y1="1830.45" x2="603.505" y2="96.1087" gradientUnits="userSpaceOnUse">
<stop stop-color="#FF9085"/>
<stop offset="1" stop-color="#FB6FBB"/>
</linearGradient>
<linearGradient id="paint2_linear_437_41" x1="889.057" y1="1708.21" x2="598.185" y2="67.3868" gradientUnits="userSpaceOnUse">
<stop stop-color="#FF9085"/>
<stop offset="1" stop-color="#FB6FBB"/>
</linearGradient>
<linearGradient id="paint3_linear_437_41" x1="600.81" y1="898.294" x2="1369.9" y2="898.294" gradientUnits="userSpaceOnUse">
<stop stop-color="#FF9085"/>
<stop offset="1" stop-color="#FB6FBB"/>
</linearGradient>
<linearGradient id="paint4_linear_437_41" x1="435.363" y1="734.69" x2="990.625" y2="734.69" gradientUnits="userSpaceOnUse">
<stop stop-color="#FF9085"/>
<stop offset="1" stop-color="#FB6FBB"/>
</linearGradient>
</defs>
</svg>
