<svg width="1869" height="1334" viewBox="0 0 1869 1334" fill="none" xmlns="http://www.w3.org/2000/svg">
<path d="M958.336 405.174L448.844 412.618V310.149C448.844 280.997 489.728 263.813 508.853 283.367L519.517 306.583C537.223 324.685 562.252 330.058 584.362 320.632L958.337 161.201L958.336 405.174Z" fill="#B2BCCC"/>
<path d="M1007.97 404.449L1443.85 398.081L1460.82 307.628C1460.82 282.502 1420.76 271.295 1406.25 288.188L1390.37 306.677C1376.66 322.641 1357.06 327.513 1339.52 319.213L1007.97 162.284V404.449H1007.97Z" fill="#B2BCCC"/>
<path d="M975.734 408.717L466.242 416.16V313.692C466.242 284.54 497.075 269.394 516.201 288.948L536.915 310.126C554.621 328.229 579.649 333.601 601.759 324.175L975.734 164.744V408.717Z" fill="#D8DEE8"/>
<path d="M1025.37 407.992L1461.25 401.624V313.306C1461.25 288.18 1438.16 274.838 1423.65 291.732L1407.77 310.22C1394.06 326.184 1374.46 331.056 1356.92 322.757L1025.37 165.828V407.992Z" fill="#D8DEE8"/>
<path d="M915.254 1167.85L466.24 402.056L17.2333 1164.13L13.4023 1161.32L466.249 392.724L468.163 395.987L919.091 1165.05L915.254 1167.85Z" fill="#B2BCCC"/>
<path d="M932.492 1166.45C932.492 1200.66 723.747 1333.33 466.246 1333.33C208.745 1333.33 0 1200.66 0 1166.45C0 1132.23 208.745 1104.5 466.246 1104.5C723.747 1104.5 932.492 1132.23 932.492 1166.45Z" fill="#D8DEE8"/>
<path d="M466.246 1226.03C723.747 1226.03 932.492 1198.3 932.492 1164.08C932.492 1129.87 723.747 1102.13 466.246 1102.13C208.745 1102.13 0 1129.87 0 1164.08C0 1198.3 208.745 1226.03 466.246 1226.03Z" fill="#E6EBF4"/>
<path opacity="0.3" d="M466.247 1206.67C715.287 1206.67 917.174 1185.1 917.174 1158.5C917.174 1131.9 715.287 1110.34 466.247 1110.34C217.207 1110.34 15.3203 1131.9 15.3203 1158.5C15.3203 1185.1 217.207 1206.67 466.247 1206.67Z" fill="#D8DEE8"/>
<path d="M466.247 458.841C496.64 458.841 521.279 431.328 521.279 397.39C521.279 363.452 496.64 335.939 466.247 335.939C435.853 335.939 411.215 363.452 411.215 397.39C411.215 431.328 435.853 458.841 466.247 458.841Z" fill="#D8DEE8"/>
<path d="M1853.24 1051.46L1461.24 392.806L1069.26 1048.26L1065.91 1045.84L1461.25 384.779L1462.92 387.586L1856.59 1049.05L1853.24 1051.46Z" fill="#B2BCCC"/>
<path d="M1868.28 1050.25C1868.28 1079.68 1686.05 1193.78 1461.25 1193.78C1236.45 1193.78 1054.21 1079.68 1054.21 1050.25C1054.21 1020.83 1236.45 996.97 1461.25 996.97C1686.05 996.97 1868.28 1020.83 1868.28 1050.25Z" fill="#D8DEE8"/>
<path d="M1461.25 1101.21C1686.05 1101.21 1868.28 1077.35 1868.28 1047.92C1868.28 1018.5 1686.05 994.641 1461.25 994.641C1236.45 994.641 1054.21 1018.5 1054.21 1047.92C1054.21 1077.35 1236.45 1101.21 1461.25 1101.21Z" fill="#E6EBF4"/>
<path opacity="0.3" d="M1461.25 1087.38C1678.66 1087.38 1854.91 1068.28 1854.91 1044.72C1854.91 1021.16 1678.66 1002.05 1461.25 1002.05C1243.84 1002.05 1067.59 1021.16 1067.59 1044.72C1067.59 1068.28 1243.84 1087.38 1461.25 1087.38Z" fill="#D8DEE8"/>
<path d="M1461.25 441.645C1487.78 441.645 1509.29 417.982 1509.29 388.792C1509.29 359.602 1487.78 335.939 1461.25 335.939C1434.71 335.939 1413.2 359.602 1413.2 388.792C1413.2 417.982 1434.71 441.645 1461.25 441.645Z" fill="#D8DEE8"/>
<path d="M1043.36 4.01317L957.384 0.0321499C937.864 -0.87185 921.957 17.3991 921.957 40.8451V112.181L944.908 443.509C946.425 465.413 961.713 481.901 979.976 481.436L1021.2 480.386C1039.14 479.929 1054.01 462.942 1055.47 441.33L1077.53 116.762V47.0702C1077.53 24.1642 1062.27 4.88917 1043.36 4.01317Z" fill="#B2BCCC"/>
<path d="M1061.47 4.01317L975.497 0.0321499C955.977 -0.87185 940.07 17.3991 940.07 40.8451V112.181L963.021 443.509C964.538 465.413 979.826 481.901 998.089 481.436L1039.31 480.386C1057.25 479.929 1072.12 462.942 1073.59 441.33L1095.64 116.762V47.0702C1095.64 24.1642 1080.39 4.88917 1061.47 4.01317Z" fill="#D8DEE8"/>
<g opacity="0.3">
<path d="M1043.53 323.95C1017 220.106 969.217 176.528 961.622 76.6179C959.571 49.6249 960.935 24.5039 964.112 1.79395C950.16 6.84095 940.07 22.1849 940.07 40.8449V112.181L963.021 443.51C964.539 465.414 979.826 481.901 998.089 481.436L1039.31 480.385C1046.3 480.207 1052.82 477.491 1058.27 472.993C1061.03 409.903 1052.76 360.107 1043.53 323.95Z" fill="#D8DEE8"/>
</g>
</svg>
