<svg width="439" height="642" viewBox="0 0 439 642" fill="none" xmlns="http://www.w3.org/2000/svg">
<mask id="mask0_438_163" style="mask-type:luminance" maskUnits="userSpaceOnUse" x="0" y="0" width="439" height="608">
<path d="M313.311 592.987C351.593 490.245 258.937 463.887 221.78 447.041C165.744 421.637 127.444 374.812 191.06 334.914C254.677 295.015 159.04 204.638 62.6301 176.652C-31.7135 149.267 -37.4722 -34.2417 172.165 6.28144C297.36 30.4816 308.743 154.217 329.346 215.336C349.949 276.454 444.067 259.053 430.822 343.051C419.508 414.801 379.474 474.844 429.723 510.07C479.973 545.296 294.548 643.343 313.311 592.987Z" fill="white"/>
</mask>
<g mask="url(#mask0_438_163)">
<path d="M62.6333 176.652C159.042 204.637 238.109 283.921 182.542 334.43C133.429 379.072 165.746 421.637 221.781 447.041C249.67 459.684 308.822 477.688 320.411 529.324C324.585 527.983 329 527.254 333.543 527.254C353.807 527.254 371.376 541.572 376.603 560.426H472.186C464.766 540.815 450.021 524.298 429.726 510.07C379.478 474.844 419.511 414.802 430.825 343.051C444.069 259.053 349.951 276.455 329.348 215.336C308.746 154.217 297.363 30.4822 172.167 6.28144C-37.4703 -34.2417 -31.7121 149.267 62.6333 176.652Z" fill="url(#paint0_linear_438_163)"/>
</g>
<mask id="mask1_438_163" style="mask-type:luminance" maskUnits="userSpaceOnUse" x="0" y="0" width="439" height="608">
<path d="M313.311 592.987C351.593 490.245 258.937 463.887 221.78 447.041C165.744 421.637 127.444 374.812 191.06 334.914C254.677 295.015 159.04 204.638 62.6301 176.652C-31.7135 149.267 -37.4722 -34.2417 172.165 6.28144C297.36 30.4816 308.743 154.217 329.346 215.336C349.949 276.454 444.067 259.053 430.822 343.051C419.508 414.801 379.474 474.844 429.723 510.07C479.973 545.296 294.548 643.343 313.311 592.987Z" fill="white"/>
</mask>
<g mask="url(#mask1_438_163)">
<g opacity="0.5">
<path d="M332.229 375.378C356.156 440.207 371.834 505.766 382.002 560.426H384.639C374.454 505.559 358.724 439.679 334.682 374.528C300.697 282.433 257.007 209.799 204.825 158.641C139.501 94.6002 60.6443 64.227 -29.5527 68.3679L-29.4334 70.9602C173.189 61.6603 279.079 231.37 332.229 375.378Z" fill="#BEB8F2"/>
<path d="M230.964 186.581L228.385 186.876C218.514 101.072 158.033 -9.52375 157.424 -10.6308L159.697 -11.8838C160.308 -10.7709 221.035 100.273 230.964 186.581Z" fill="#BEB8F2"/>
<path d="M186.271 145.103C88.5316 112.845 15.3899 157.496 14.6634 157.951L13.2871 155.752C14.0246 155.289 88.1465 109.987 187.084 142.639L186.271 145.103Z" fill="#BEB8F2"/>
<path d="M364.379 479.626C307.292 367.59 138.509 377.728 136.874 377.965L136.336 375.428C137.919 375.044 309.098 365.417 366.691 478.448L364.379 479.626Z" fill="#BEB8F2"/>
<path d="M352.914 429.059L350.319 429.145C347.644 348.952 417.683 276.305 418.391 275.58L420.247 277.393C419.546 278.11 350.275 349.985 352.914 429.059Z" fill="#BEB8F2"/>
<path d="M423.904 560.425C434.841 544.444 446.194 530.878 452.309 523.577C455.211 520.112 456.402 518.681 456.74 518.047L454.448 516.828C454.203 517.274 452.404 519.422 450.32 521.911C443.982 529.477 432.083 543.692 420.777 560.425L423.904 560.425Z" fill="#BEB8F2"/>
</g>
</g>
<path d="M130.363 466.889C194.122 510.794 226.828 536.009 223.868 560.425H371.273C372.171 545.219 366.477 530.646 348.369 519.751C308.009 495.469 277.004 488.049 287.423 431.089C297.842 374.128 275.558 331.692 223.764 322.813C169.259 313.471 142.375 231.493 92.6856 244.847C6.10375 268.118 45.8044 408.662 130.363 466.889Z" fill="url(#paint1_linear_438_163)"/>
<mask id="mask2_438_163" style="mask-type:luminance" maskUnits="userSpaceOnUse" x="44" y="243" width="328" height="399">
<path d="M338.526 627.931C356.386 604.449 396.851 548.918 348.371 519.75C308.011 495.469 277.005 488.048 287.424 431.088C297.843 374.128 275.56 331.692 223.766 322.814C169.261 313.471 142.377 231.492 92.6873 244.847C6.10552 268.118 45.8068 408.662 130.365 466.889C214.924 525.117 153.437 545.878 139.894 591.289C121.407 653.286 324.096 646.904 338.526 627.931Z" fill="white"/>
</mask>
<g mask="url(#mask2_438_163)">
<g opacity="0.5">
<path d="M257.134 560.425H259.832C225.349 438.442 154.999 326.637 58.5775 247.148L56.9199 249.159C152.752 328.161 222.726 439.223 257.134 560.425Z" fill="#FCFDFE"/>
<path d="M331.656 560.425C352.536 541.203 371.221 530.818 371.598 530.612L370.35 528.325C369.957 528.54 349.821 539.73 327.857 560.425H331.656Z" fill="#FCFDFE"/>
<path d="M222.511 466.275L225.076 465.816C214.445 406.553 269.058 332.113 269.611 331.368L267.519 329.814C266.96 330.569 211.683 405.917 222.511 466.275Z" fill="#FCFDFE"/>
<path d="M161.817 361.623L163.656 359.776C115.023 311.387 22.3583 309.905 21.4268 309.897L21.4004 312.503C22.3204 312.51 113.943 313.987 161.817 361.623Z" fill="#FCFDFE"/>
</g>
</g>
<defs>
<linearGradient id="paint0_linear_438_163" x1="80.2008" y1="20.3326" x2="482.209" y2="638.393" gradientUnits="userSpaceOnUse">
<stop offset="0.0036" stop-color="#E38DDD"/>
<stop offset="1" stop-color="#9571F6"/>
</linearGradient>
<linearGradient id="paint1_linear_438_163" x1="155.779" y1="285.658" x2="319.964" y2="783.559" gradientUnits="userSpaceOnUse">
<stop stop-color="#FF9085"/>
<stop offset="1" stop-color="#FB6FBB"/>
</linearGradient>
</defs>
</svg>
