<svg width="575" height="713" viewBox="0 0 575 713" fill="none" xmlns="http://www.w3.org/2000/svg">
<mask id="mask0_438_163" style="mask-type:luminance" maskUnits="userSpaceOnUse" x="0" y="45" width="439" height="608">
<path d="M313.311 637.987C351.593 535.245 258.937 508.887 221.78 492.041C165.744 466.637 127.444 419.812 191.06 379.914C254.677 340.015 159.04 249.638 62.6301 221.652C-31.7135 194.267 -37.4722 10.7583 172.165 51.2814C297.36 75.4816 308.743 199.217 329.346 260.336C349.949 321.454 444.067 304.053 430.822 388.051C419.508 459.801 379.474 519.844 429.723 555.07C479.973 590.296 294.548 688.343 313.311 637.987Z" fill="white"/>
</mask>
<g mask="url(#mask0_438_163)">
<path d="M62.6333 221.652C159.042 249.637 238.109 328.921 182.542 379.43C133.429 424.072 165.746 466.637 221.781 492.041C249.67 504.684 308.822 522.688 320.411 574.324C324.585 572.983 329 572.254 333.543 572.254C353.807 572.254 371.376 586.572 376.603 605.426H472.186C464.766 585.815 450.021 569.298 429.726 555.07C379.478 519.844 419.511 459.802 430.825 388.051C444.069 304.053 349.951 321.455 329.348 260.336C308.746 199.217 297.363 75.4822 172.167 51.2814C-37.4703 10.7583 -31.7121 194.267 62.6333 221.652Z" fill="url(#paint0_linear_438_163)"/>
</g>
<mask id="mask1_438_163" style="mask-type:luminance" maskUnits="userSpaceOnUse" x="0" y="45" width="439" height="608">
<path d="M313.311 637.987C351.593 535.245 258.937 508.887 221.78 492.041C165.744 466.637 127.444 419.812 191.06 379.914C254.677 340.015 159.04 249.638 62.6301 221.652C-31.7135 194.267 -37.4722 10.7583 172.165 51.2814C297.36 75.4816 308.743 199.217 329.346 260.336C349.949 321.454 444.067 304.053 430.822 388.051C419.508 459.801 379.474 519.844 429.723 555.07C479.973 590.296 294.548 688.343 313.311 637.987Z" fill="white"/>
</mask>
<g mask="url(#mask1_438_163)">
<g opacity="0.5">
<path d="M332.229 420.378C356.156 485.207 371.834 550.766 382.002 605.426H384.639C374.454 550.559 358.724 484.679 334.682 419.528C300.697 327.433 257.007 254.799 204.825 203.641C139.501 139.6 60.6443 109.227 -29.5527 113.368L-29.4334 115.96C173.189 106.66 279.079 276.37 332.229 420.378Z" fill="#BEB8F2"/>
<path d="M230.964 231.581L228.385 231.876C218.514 146.072 158.033 35.4763 157.424 34.3692L159.697 33.1162C160.308 34.2291 221.035 145.273 230.964 231.581Z" fill="#BEB8F2"/>
<path d="M186.271 190.103C88.5316 157.845 15.3899 202.496 14.6634 202.951L13.2871 200.752C14.0246 200.289 88.1465 154.987 187.084 187.639L186.271 190.103Z" fill="#BEB8F2"/>
<path d="M364.379 524.626C307.292 412.59 138.509 422.728 136.874 422.965L136.336 420.428C137.919 420.044 309.098 410.417 366.691 523.448L364.379 524.626Z" fill="#BEB8F2"/>
<path d="M352.914 474.059L350.319 474.145C347.644 393.952 417.683 321.305 418.391 320.58L420.247 322.393C419.546 323.11 350.275 394.985 352.914 474.059Z" fill="#BEB8F2"/>
<path d="M423.904 605.425C434.841 589.444 446.194 575.878 452.309 568.577C455.211 565.112 456.402 563.681 456.74 563.047L454.448 561.828C454.203 562.274 452.404 564.422 450.32 566.911C443.982 574.477 432.083 588.692 420.777 605.425L423.904 605.425Z" fill="#BEB8F2"/>
</g>
</g>
<path d="M305.96 580.759C313.526 574.895 322.899 571.321 332.919 571.321C353.518 571.321 371.33 586.112 376.225 605.426H535.135C523.495 560.529 486.479 514.856 473.848 491.002C447.194 440.664 440.221 418.48 495.487 314.439C587.767 179.869 597.038 52.6595 534.861 14.226C471.863 -24.7154 408.623 21.3283 385.508 91.3065C370.718 136.078 323.862 108.027 296.18 165.377C271.883 215.716 319.597 295.904 336.717 340.954C381.436 458.622 324.627 514.831 305.96 580.759Z" fill="url(#paint1_linear_438_163)"/>
<path d="M315.3 679.352C255.057 552.358 401.088 510.334 336.717 340.954C319.596 295.904 271.882 215.716 296.181 165.378C323.863 108.028 370.719 136.079 385.508 91.3075C408.624 21.3299 471.864 -24.7145 534.861 14.2269C597.036 52.6604 587.766 179.869 495.487 314.439C440.222 418.481 447.193 440.665 473.848 491.002C492.518 526.261 564.545 609.194 528.992 666.822C493.439 724.449 337.503 726.156 315.3 679.352Z" fill="url(#paint2_linear_438_163)"/>
<mask id="mask2_438_163" style="mask-type:luminance" maskUnits="userSpaceOnUse" x="289" y="0" width="286" height="713">
<path d="M315.3 679.352C255.057 552.358 401.088 510.334 336.717 340.954C319.596 295.904 271.882 215.716 296.181 165.378C323.863 108.028 370.719 136.079 385.508 91.3075C408.624 21.3299 471.864 -24.7145 534.861 14.2269C597.036 52.6604 587.766 179.869 495.487 314.439C440.222 418.481 447.193 440.665 473.848 491.002C492.518 526.261 564.545 609.194 528.992 666.822C493.439 724.449 337.503 726.156 315.3 679.352Z" fill="white"/>
</mask>
<g mask="url(#mask2_438_163)">
<g opacity="0.5">
<path d="M404.209 605.426H406.905C406.549 595.109 406.265 584.822 406.124 574.592C404.862 483.147 412.167 393.967 427.836 309.531C440.434 241.644 458.484 176.441 481.482 115.736C497.645 73.0753 516.064 33.0641 536.23 -3.18732C539.719 -9.4609 543.658 -15.7145 547.467 -21.7625C552.602 -29.9157 557.913 -38.3455 562.257 -47.0279L559.848 -48.2349C555.562 -39.6702 550.287 -31.2966 545.187 -23.199C541.358 -17.1212 537.399 -10.8367 533.875 -4.49827C513.646 31.8674 495.172 71.9992 478.963 114.78C455.907 175.636 437.814 240.994 425.187 309.038C409.486 393.649 402.164 483.007 403.429 574.628C403.57 584.846 403.854 595.122 404.209 605.426Z" fill="url(#paint3_linear_438_163)"/>
<path d="M412.99 413.247L410.302 413.048C418.921 297.705 309.714 132.297 308.609 130.641L310.852 129.146C311.962 130.811 421.677 296.981 412.99 413.247Z" fill="url(#paint4_linear_438_163)"/>
<path d="M479.326 605.426C502.919 576.39 524.313 556.247 524.802 555.793L522.962 553.822C522.463 554.287 500.162 575.3 475.906 605.426H479.326Z" fill="url(#paint5_linear_438_163)"/>
<path d="M468.49 151.799L465.819 151.449C474.185 87.5873 468.17 18.5567 466.193 -4.12712C465.715 -9.61844 465.553 -11.5514 465.614 -12.2344L468.297 -11.9956C468.258 -11.4733 468.532 -8.33457 468.879 -4.36013C470.862 18.396 476.895 87.6465 468.49 151.799Z" fill="url(#paint6_linear_438_163)"/>
<path d="M439.532 253.622L437.082 252.5C462.215 197.579 575.562 155.833 580.375 154.082L581.295 156.615C580.127 157.04 464.196 199.727 439.532 253.622Z" fill="url(#paint7_linear_438_163)"/>
</g>
</g>
<path d="M130.363 511.89C194.122 555.795 226.828 581.009 223.868 605.426H371.273C372.171 590.219 366.477 575.646 348.369 564.751C308.009 540.47 277.004 533.05 287.423 476.089C297.842 419.128 275.558 376.693 223.764 367.814C169.259 358.472 142.375 276.493 92.6856 289.848C6.10375 313.119 45.8044 453.663 130.363 511.89Z" fill="url(#paint8_linear_438_163)"/>
<mask id="mask3_438_163" style="mask-type:luminance" maskUnits="userSpaceOnUse" x="44" y="288" width="328" height="399">
<path d="M338.526 672.932C356.386 649.45 396.851 593.919 348.371 564.751C308.011 540.469 277.005 533.049 287.424 476.089C297.843 419.128 275.56 376.692 223.766 367.814C169.261 358.471 142.377 276.493 92.6873 289.848C6.10552 313.118 45.8068 453.662 130.365 511.89C214.924 570.117 153.437 590.878 139.894 636.29C121.407 698.287 324.096 691.905 338.526 672.932Z" fill="white"/>
</mask>
<g mask="url(#mask3_438_163)">
<g opacity="0.5">
<path d="M257.134 605.426H259.832C225.349 483.442 154.999 371.638 58.5775 292.148L56.9199 294.159C152.752 373.161 222.726 484.223 257.134 605.426Z" fill="#FCFDFE"/>
<path d="M331.656 605.426C352.536 586.204 371.221 575.818 371.598 575.613L370.35 573.325C369.957 573.54 349.821 584.731 327.857 605.426H331.656Z" fill="#FCFDFE"/>
<path d="M222.511 511.276L225.076 510.817C214.445 451.554 269.058 377.114 269.611 376.369L267.519 374.815C266.96 375.569 211.683 450.918 222.511 511.276Z" fill="#FCFDFE"/>
<path d="M161.817 406.624L163.656 404.777C115.023 356.387 22.3583 354.905 21.4268 354.897L21.4004 357.503C22.3204 357.51 113.943 358.987 161.817 406.624Z" fill="#FCFDFE"/>
</g>
</g>
<defs>
<linearGradient id="paint0_linear_438_163" x1="80.2008" y1="65.3326" x2="482.209" y2="683.393" gradientUnits="userSpaceOnUse">
<stop offset="0.0036" stop-color="#E38DDD"/>
<stop offset="1" stop-color="#9571F6"/>
</linearGradient>
<linearGradient id="paint1_linear_438_163" x1="485.596" y1="229.403" x2="31.702" y2="1241.63" gradientUnits="userSpaceOnUse">
<stop stop-color="#FFC444"/>
<stop offset="0.129" stop-color="#FDB946"/>
<stop offset="0.1674" stop-color="#FDB647"/>
<stop offset="0.9964" stop-color="#F36F56"/>
</linearGradient>
<linearGradient id="paint2_linear_438_163" x1="494.753" y1="233.509" x2="40.8578" y2="1245.74" gradientUnits="userSpaceOnUse">
<stop stop-color="#FFC444"/>
<stop offset="0.129" stop-color="#FDB946"/>
<stop offset="0.1674" stop-color="#FDB647"/>
<stop offset="0.9964" stop-color="#F36F56"/>
</linearGradient>
<linearGradient id="paint3_linear_438_163" x1="498.072" y1="234.998" x2="44.1756" y2="1247.22" gradientUnits="userSpaceOnUse">
<stop stop-color="#FFC444"/>
<stop offset="0.129" stop-color="#FDB946"/>
<stop offset="0.1674" stop-color="#FDB647"/>
<stop offset="0.9964" stop-color="#F36F56"/>
</linearGradient>
<linearGradient id="paint4_linear_438_163" x1="397.575" y1="189.933" x2="-56.3201" y2="1202.16" gradientUnits="userSpaceOnUse">
<stop stop-color="#FFC444"/>
<stop offset="0.129" stop-color="#FDB946"/>
<stop offset="0.1674" stop-color="#FDB647"/>
<stop offset="0.9964" stop-color="#F36F56"/>
</linearGradient>
<linearGradient id="paint5_linear_438_163" x1="629.004" y1="293.71" x2="175.108" y2="1305.93" gradientUnits="userSpaceOnUse">
<stop stop-color="#FFC444"/>
<stop offset="0.129" stop-color="#FDB946"/>
<stop offset="0.1674" stop-color="#FDB647"/>
<stop offset="0.9964" stop-color="#F36F56"/>
</linearGradient>
<linearGradient id="paint6_linear_438_163" x1="410.563" y1="195.758" x2="-43.3327" y2="1207.98" gradientUnits="userSpaceOnUse">
<stop stop-color="#FFC444"/>
<stop offset="0.129" stop-color="#FDB946"/>
<stop offset="0.1674" stop-color="#FDB647"/>
<stop offset="0.9964" stop-color="#F36F56"/>
</linearGradient>
<linearGradient id="paint7_linear_438_163" x1="495.963" y1="234.051" x2="42.0675" y2="1246.28" gradientUnits="userSpaceOnUse">
<stop stop-color="#FFC444"/>
<stop offset="0.129" stop-color="#FDB946"/>
<stop offset="0.1674" stop-color="#FDB647"/>
<stop offset="0.9964" stop-color="#F36F56"/>
</linearGradient>
<linearGradient id="paint8_linear_438_163" x1="155.779" y1="330.659" x2="319.964" y2="828.56" gradientUnits="userSpaceOnUse">
<stop stop-color="#FF9085"/>
<stop offset="1" stop-color="#FB6FBB"/>
</linearGradient>
</defs>
</svg>
