<svg width="132" height="36" viewBox="0 0 132 36" fill="none" xmlns="http://www.w3.org/2000/svg">
<path d="M30.5207 12.75C30.8807 12.75 31.0007 12.88 31.0007 13.23V21.15H35.0707C35.4207 21.15 35.5507 21.28 35.5507 21.63V22.33C35.5507 22.68 35.4207 22.81 35.0707 22.81H29.7107C29.3607 22.81 29.2207 22.68 29.2207 22.33V13.23C29.2207 12.88 29.3607 12.75 29.7107 12.75H30.5207Z" fill="#50477C"/>
<path d="M39.0996 16.24C39.0996 13.93 40.5596 12.54 43.0996 12.54C45.6396 12.54 47.0996 13.93 47.0996 16.24V19.32C47.0996 21.63 45.6296 23.02 43.0996 23.02C40.5696 23.02 39.0996 21.63 39.0996 19.32V16.24ZM45.4196 16.24C45.4196 14.94 44.6096 14.24 43.1496 14.24C41.6896 14.24 40.8896 14.95 40.8896 16.24V19.34C40.8896 20.65 41.6896 21.34 43.1496 21.34C44.6096 21.34 45.4196 20.62 45.4196 19.34V16.24Z" fill="#50477C"/>
<path d="M59.0097 17.3C59.3997 17.3 59.4897 17.43 59.4897 17.78V19.68C59.5003 20.1275 59.4106 20.5718 59.2272 20.9801C59.0437 21.3885 58.7713 21.7506 58.4297 22.04C57.5814 22.7155 56.5118 23.0506 55.4297 22.98C52.8397 22.98 51.4297 21.59 51.4297 19.28V16.18C51.4297 13.9 52.8897 12.5 55.4297 12.5C57.4297 12.5 58.7297 13.29 59.2797 14.87C59.3105 14.9294 59.327 14.9951 59.3279 15.0619C59.3288 15.1288 59.3141 15.195 59.285 15.2551C59.2559 15.3153 59.2131 15.3679 59.1601 15.4087C59.1071 15.4494 59.0453 15.4773 58.9797 15.49L58.1997 15.76C57.8597 15.88 57.7197 15.81 57.5997 15.46C57.434 15.0329 57.1307 14.6731 56.7377 14.4377C56.3447 14.2023 55.8845 14.1045 55.4297 14.16C53.9597 14.16 53.1597 14.87 53.1597 16.16V19.34C53.1597 20.65 53.9697 21.34 55.4297 21.34C56.8897 21.34 57.7897 20.67 57.7897 19.69V18.95H55.6197C55.2597 18.95 55.1297 18.81 55.1297 18.46V17.78C55.1297 17.43 55.2597 17.3 55.6197 17.3H59.0097Z" fill="#50477C"/>
<path d="M63.6191 16.24C63.6191 13.93 65.0791 12.54 67.6191 12.54C70.1591 12.54 71.6191 13.93 71.6191 16.24V19.32C71.6191 21.63 70.1491 23.02 67.6191 23.02C65.0891 23.02 63.6191 21.63 63.6191 19.32V16.24ZM69.9291 16.24C69.9291 14.94 69.1191 14.24 67.6691 14.24C66.2191 14.24 65.3991 14.95 65.3991 16.24V19.34C65.3991 20.65 66.2091 21.34 67.6691 21.34C69.1291 21.34 69.9291 20.62 69.9291 19.34V16.24Z" fill="#50477C"/>
<path d="M12.73 21.29V28.52C12.73 28.7972 12.6199 29.063 12.4239 29.2589C12.228 29.4549 11.9622 29.565 11.685 29.565C11.4079 29.565 11.1421 29.4549 10.9461 29.2589C10.7501 29.063 10.64 28.7972 10.64 28.52V21.3C10.931 21.5125 11.2798 21.6311 11.64 21.64C12.0326 21.6512 12.4173 21.5277 12.73 21.29ZM21.63 19.2C21.3648 19.2 21.1104 19.3054 20.9229 19.4929C20.7354 19.6804 20.63 19.9348 20.63 20.2V21.46C20.63 21.7372 20.7401 22.003 20.9361 22.1989C21.132 22.3949 21.3978 22.505 21.675 22.505C21.9522 22.505 22.218 22.3949 22.4139 22.1989C22.6099 22.003 22.72 21.7372 22.72 21.46V20.25C22.7278 20.1066 22.7046 19.9632 22.652 19.8296C22.5994 19.696 22.5187 19.5752 22.4152 19.4756C22.3118 19.376 22.1881 19.2998 22.0527 19.2522C21.9172 19.2047 21.773 19.1869 21.63 19.2ZM8.37 24.03C8.01017 24.0192 7.66183 23.9008 7.37 23.69V30.94C7.37 31.2185 7.48062 31.4856 7.67754 31.6825C7.87445 31.8794 8.14152 31.99 8.42 31.99C8.69848 31.99 8.96555 31.8794 9.16246 31.6825C9.35938 31.4856 9.47 31.2185 9.47 30.94V23.74C9.14345 23.9511 8.75816 24.0527 8.37 24.03ZM18.37 17.03C18.2345 17.0232 18.0991 17.0441 17.9719 17.0913C17.8448 17.1385 17.7286 17.2111 17.6303 17.3046C17.5321 17.3982 17.454 17.5107 17.4006 17.6354C17.3473 17.7601 17.3198 17.8944 17.32 18.03V23.6C17.32 23.8785 17.4306 24.1456 17.6275 24.3425C17.8245 24.5394 18.0915 24.65 18.37 24.65C18.6485 24.65 18.9156 24.5394 19.1125 24.3425C19.3094 24.1456 19.42 23.8785 19.42 23.6V18.1C19.428 17.9557 19.4046 17.8114 19.3514 17.677C19.2982 17.5426 19.2166 17.4213 19.112 17.3215C19.0074 17.2217 18.8825 17.1457 18.7458 17.0989C18.6091 17.052 18.4638 17.0353 18.32 17.05L18.37 17.03ZM15.05 19.17C14.6733 19.1674 14.3067 19.0487 14 18.83V26.1C14 26.3785 14.1106 26.6456 14.3075 26.8425C14.5045 27.0394 14.7715 27.15 15.05 27.15C15.3285 27.15 15.5955 27.0394 15.7925 26.8425C15.9894 26.6456 16.1 26.3785 16.1 26.1V18.84C15.7828 19.0763 15.3955 19.1995 15 19.19L15.05 19.17ZM6.1 24.74V4.43C6.09737 4.18243 5.99717 3.94591 5.82117 3.77178C5.64517 3.59765 5.40758 3.49999 5.16 3.5H4.94C4.69242 3.49999 4.45483 3.59765 4.27883 3.77178C4.10283 3.94591 4.00263 4.18243 4 4.43V24.74C4 24.9893 4.09904 25.2284 4.27532 25.4047C4.4516 25.581 4.6907 25.68 4.94 25.68H5.16C5.40931 25.68 5.6484 25.581 5.82468 25.4047C6.00097 25.2284 6.1 24.9893 6.1 24.74ZM8.48 23.26H8.26C8.0107 23.26 7.7716 23.161 7.59532 22.9847C7.41904 22.8084 7.32 22.5693 7.32 22.32V6.85C7.32264 6.60244 7.42283 6.3659 7.59883 6.19178C7.77483 6.01765 8.01242 5.91999 8.26 5.92H8.48C8.72758 5.91999 8.96517 6.01765 9.14117 6.19178C9.31717 6.3659 9.41737 6.60244 9.42 6.85V22.34C9.42 22.5893 9.32096 22.8284 9.14468 23.0047C8.9684 23.181 8.7293 23.28 8.48 23.28V23.26ZM11.79 20.88H11.56C11.3134 20.88 11.0768 20.782 10.9024 20.6076C10.728 20.4332 10.63 20.1967 10.63 19.95V9.25C10.6287 9.12703 10.6518 9.00502 10.6979 8.89103C10.744 8.77704 10.8123 8.67334 10.8988 8.58592C10.9853 8.4985 11.0883 8.4291 11.2018 8.38174C11.3153 8.33438 11.437 8.30999 11.56 8.31H11.79C12.0376 8.31264 12.2741 8.41283 12.4482 8.58883C12.6224 8.76483 12.72 9.00242 12.72 9.25V19.95C12.72 20.1967 12.622 20.4332 12.4476 20.6076C12.2732 20.782 12.0367 20.88 11.79 20.88ZM15.1 18.43H14.89C14.6424 18.43 14.4048 18.3324 14.2288 18.1582C14.0528 17.9841 13.9526 17.7476 13.95 17.5V11.74C13.9418 11.6116 13.96 11.4829 14.0036 11.3618C14.0471 11.2408 14.1151 11.1299 14.2032 11.0362C14.2913 10.9424 14.3977 10.8678 14.5159 10.8168C14.634 10.7659 14.7613 10.7397 14.89 10.74H15.11C15.3593 10.74 15.5984 10.839 15.7747 11.0153C15.951 11.1916 16.05 11.4307 16.05 11.68V17.48C16.0513 17.6043 16.028 17.7276 15.9813 17.8428C15.9347 17.958 15.8657 18.0628 15.7782 18.1512C15.6908 18.2395 15.5868 18.3096 15.472 18.3575C15.3573 18.4054 15.2343 18.43 15.11 18.43H15.1ZM18.42 16.28H18.2C17.9507 16.28 17.7116 16.181 17.5353 16.0047C17.359 15.8284 17.26 15.5893 17.26 15.34V13.85C17.2626 13.6024 17.3628 13.3659 17.5388 13.1918C17.7148 13.0176 17.9524 12.92 18.2 12.92H18.42C18.6676 12.92 18.9052 13.0176 19.0812 13.1918C19.2572 13.3659 19.3574 13.6024 19.36 13.85V15.34C19.36 15.5876 19.2624 15.8252 19.0882 16.0012C18.9141 16.1772 18.6776 16.2774 18.43 16.28H18.42Z" fill="#50477C"/>
</svg>
