<svg width="484" height="493" viewBox="0 0 484 493" fill="none" xmlns="http://www.w3.org/2000/svg">
<circle cx="430" cy="439" r="54" fill="white"/>
<path d="M401 412L459 466M459 466V412M459 466H401" stroke="#50477C" stroke-width="7"/>
<path fill-rule="evenodd" clip-rule="evenodd" d="M48 0H419C445.51 0 467 21.4903 467 48V316.475C467 342.984 445.51 364.475 419 364.475H411.222C384.713 364.475 363.222 385.965 363.222 412.475V445C363.222 471.51 341.732 493 315.222 493H47.9999C21.4903 493 0 471.51 0 445V48C0 21.4903 21.4903 0 48 0ZM417 18C398.775 18 384 32.7746 384 51V317C384 335.225 398.775 350 417 350C435.225 350 450 335.225 450 317V51C450 32.7746 435.225 18 417 18Z" fill="white"/>
</svg>
